<mxfile host="app.diagrams.net" modified="2020-11-19T00:30:44.370Z" agent="5.0 (Windows NT 10.0; Win64; x64) AppleWebKit/537.36 (KHTML, like Gecko) Chrome/86.0.4240.198 Safari/537.36" etag="7W_LYSvWQrsQt5LkuEHy" version="13.10.0" type="github">
  <diagram id="C5RBs43oDa-KdzZeNtuy" name="Main">
    <mxGraphModel dx="1038" dy="617" grid="1" gridSize="10" guides="1" tooltips="1" connect="1" arrows="1" fold="1" page="1" pageScale="1" pageWidth="827" pageHeight="1169" math="0" shadow="0">
      <root>
        <mxCell id="WIyWlLk6GJQsqaUBKTNV-0" />
        <mxCell id="WIyWlLk6GJQsqaUBKTNV-1" parent="WIyWlLk6GJQsqaUBKTNV-0" />
        <mxCell id="eqVt8OM183zsTdJXWkha-15" value="New Game" style="edgeStyle=orthogonalEdgeStyle;rounded=0;orthogonalLoop=1;jettySize=auto;html=1;exitX=0.5;exitY=1;exitDx=0;exitDy=0;entryX=0;entryY=0.5;entryDx=0;entryDy=0;" parent="WIyWlLk6GJQsqaUBKTNV-1" source="WIyWlLk6GJQsqaUBKTNV-6" target="WIyWlLk6GJQsqaUBKTNV-7" edge="1">
          <mxGeometry relative="1" as="geometry">
            <Array as="points">
              <mxPoint x="90" y="250" />
              <mxPoint x="210" y="250" />
              <mxPoint x="210" y="200" />
            </Array>
          </mxGeometry>
        </mxCell>
        <mxCell id="ONKfbVOToJ8YvUQxVknO-25" value="Exit" style="edgeStyle=orthogonalEdgeStyle;rounded=0;orthogonalLoop=1;jettySize=auto;html=1;exitX=1;exitY=0.5;exitDx=0;exitDy=0;entryX=0;entryY=0.5;entryDx=0;entryDy=0;entryPerimeter=0;" edge="1" parent="WIyWlLk6GJQsqaUBKTNV-1" source="WIyWlLk6GJQsqaUBKTNV-6" target="ONKfbVOToJ8YvUQxVknO-26">
          <mxGeometry x="-0.75" relative="1" as="geometry">
            <mxPoint x="100" y="260" as="targetPoint" />
            <Array as="points">
              <mxPoint x="190" y="190" />
              <mxPoint x="190" y="110" />
            </Array>
            <mxPoint as="offset" />
          </mxGeometry>
        </mxCell>
        <mxCell id="ONKfbVOToJ8YvUQxVknO-28" style="edgeStyle=orthogonalEdgeStyle;rounded=0;orthogonalLoop=1;jettySize=auto;html=1;exitX=1;exitY=1;exitDx=0;exitDy=0;entryX=0;entryY=0.5;entryDx=0;entryDy=0;" edge="1" parent="WIyWlLk6GJQsqaUBKTNV-1" source="WIyWlLk6GJQsqaUBKTNV-6" target="eqVt8OM183zsTdJXWkha-0">
          <mxGeometry relative="1" as="geometry" />
        </mxCell>
        <mxCell id="ONKfbVOToJ8YvUQxVknO-29" value="Load Game" style="edgeLabel;html=1;align=center;verticalAlign=middle;resizable=0;points=[];" vertex="1" connectable="0" parent="ONKfbVOToJ8YvUQxVknO-28">
          <mxGeometry x="-0.4211" y="1" relative="1" as="geometry">
            <mxPoint as="offset" />
          </mxGeometry>
        </mxCell>
        <mxCell id="WIyWlLk6GJQsqaUBKTNV-6" value="Main Menu" style="rhombus;whiteSpace=wrap;html=1;shadow=0;fontFamily=Helvetica;fontSize=12;align=center;strokeWidth=1;spacing=6;spacingTop=-4;" parent="WIyWlLk6GJQsqaUBKTNV-1" vertex="1">
          <mxGeometry x="40" y="150" width="100" height="80" as="geometry" />
        </mxCell>
        <mxCell id="eqVt8OM183zsTdJXWkha-19" style="edgeStyle=orthogonalEdgeStyle;rounded=0;orthogonalLoop=1;jettySize=auto;html=1;exitX=1;exitY=0.5;exitDx=0;exitDy=0;" parent="WIyWlLk6GJQsqaUBKTNV-1" source="WIyWlLk6GJQsqaUBKTNV-7" target="eqVt8OM183zsTdJXWkha-9" edge="1">
          <mxGeometry relative="1" as="geometry" />
        </mxCell>
        <mxCell id="WIyWlLk6GJQsqaUBKTNV-7" value="Generate Map" style="rounded=1;whiteSpace=wrap;html=1;fontSize=12;glass=0;strokeWidth=1;shadow=0;" parent="WIyWlLk6GJQsqaUBKTNV-1" vertex="1">
          <mxGeometry x="220" y="190" width="110" height="20" as="geometry" />
        </mxCell>
        <mxCell id="eqVt8OM183zsTdJXWkha-17" style="edgeStyle=orthogonalEdgeStyle;rounded=0;orthogonalLoop=1;jettySize=auto;html=1;exitX=1;exitY=0.5;exitDx=0;exitDy=0;" parent="WIyWlLk6GJQsqaUBKTNV-1" source="eqVt8OM183zsTdJXWkha-0" target="eqVt8OM183zsTdJXWkha-9" edge="1">
          <mxGeometry relative="1" as="geometry" />
        </mxCell>
        <mxCell id="eqVt8OM183zsTdJXWkha-0" value="Load map from .txt file" style="rounded=1;whiteSpace=wrap;html=1;" parent="WIyWlLk6GJQsqaUBKTNV-1" vertex="1">
          <mxGeometry x="260" y="150" width="90" height="30" as="geometry" />
        </mxCell>
        <mxCell id="eqVt8OM183zsTdJXWkha-11" style="edgeStyle=orthogonalEdgeStyle;rounded=0;orthogonalLoop=1;jettySize=auto;html=1;exitX=1;exitY=0.5;exitDx=0;exitDy=0;entryX=0.25;entryY=0;entryDx=0;entryDy=0;" parent="WIyWlLk6GJQsqaUBKTNV-1" source="eqVt8OM183zsTdJXWkha-9" target="ONKfbVOToJ8YvUQxVknO-14" edge="1">
          <mxGeometry relative="1" as="geometry">
            <mxPoint x="550" y="260" as="targetPoint" />
          </mxGeometry>
        </mxCell>
        <mxCell id="eqVt8OM183zsTdJXWkha-9" value="Start Game" style="rounded=1;whiteSpace=wrap;html=1;" parent="WIyWlLk6GJQsqaUBKTNV-1" vertex="1">
          <mxGeometry x="380" y="155" width="76" height="20" as="geometry" />
        </mxCell>
        <mxCell id="eqVt8OM183zsTdJXWkha-12" style="edgeStyle=orthogonalEdgeStyle;rounded=0;orthogonalLoop=1;jettySize=auto;html=1;exitX=0.5;exitY=1;exitDx=0;exitDy=0;" parent="WIyWlLk6GJQsqaUBKTNV-1" source="WIyWlLk6GJQsqaUBKTNV-6" target="WIyWlLk6GJQsqaUBKTNV-6" edge="1">
          <mxGeometry relative="1" as="geometry" />
        </mxCell>
        <mxCell id="ONKfbVOToJ8YvUQxVknO-27" style="edgeStyle=orthogonalEdgeStyle;rounded=0;orthogonalLoop=1;jettySize=auto;html=1;exitX=0.5;exitY=1;exitDx=0;exitDy=0;exitPerimeter=0;entryX=0;entryY=0;entryDx=0;entryDy=0;" edge="1" parent="WIyWlLk6GJQsqaUBKTNV-1" source="eqVt8OM183zsTdJXWkha-23" target="WIyWlLk6GJQsqaUBKTNV-6">
          <mxGeometry relative="1" as="geometry" />
        </mxCell>
        <mxCell id="eqVt8OM183zsTdJXWkha-23" value="Start" style="strokeWidth=2;html=1;shape=mxgraph.flowchart.start_1;whiteSpace=wrap;" parent="WIyWlLk6GJQsqaUBKTNV-1" vertex="1">
          <mxGeometry x="10" y="60" width="70" height="40" as="geometry" />
        </mxCell>
        <mxCell id="ONKfbVOToJ8YvUQxVknO-18" style="edgeStyle=orthogonalEdgeStyle;rounded=0;orthogonalLoop=1;jettySize=auto;html=1;exitX=0.846;exitY=0.753;exitDx=0;exitDy=0;exitPerimeter=0;entryX=0;entryY=0.5;entryDx=0;entryDy=0;entryPerimeter=0;" edge="1" parent="WIyWlLk6GJQsqaUBKTNV-1" source="eqVt8OM183zsTdJXWkha-25" target="eqVt8OM183zsTdJXWkha-27">
          <mxGeometry relative="1" as="geometry">
            <Array as="points">
              <mxPoint x="669" y="213" />
              <mxPoint x="670" y="390" />
            </Array>
          </mxGeometry>
        </mxCell>
        <mxCell id="ONKfbVOToJ8YvUQxVknO-19" value="Move&lt;br&gt;Character" style="edgeLabel;html=1;align=center;verticalAlign=middle;resizable=0;points=[];" vertex="1" connectable="0" parent="ONKfbVOToJ8YvUQxVknO-18">
          <mxGeometry x="-0.213" relative="1" as="geometry">
            <mxPoint y="-47.37" as="offset" />
          </mxGeometry>
        </mxCell>
        <mxCell id="ONKfbVOToJ8YvUQxVknO-33" style="edgeStyle=orthogonalEdgeStyle;rounded=0;jumpStyle=arc;orthogonalLoop=1;jettySize=auto;html=1;exitX=0;exitY=0.5;exitDx=0;exitDy=0;exitPerimeter=0;entryX=0.5;entryY=0;entryDx=0;entryDy=0;" edge="1" parent="WIyWlLk6GJQsqaUBKTNV-1" source="eqVt8OM183zsTdJXWkha-25" target="ONKfbVOToJ8YvUQxVknO-5">
          <mxGeometry relative="1" as="geometry" />
        </mxCell>
        <mxCell id="ONKfbVOToJ8YvUQxVknO-35" value="Save Game" style="edgeLabel;html=1;align=center;verticalAlign=middle;resizable=0;points=[];" vertex="1" connectable="0" parent="ONKfbVOToJ8YvUQxVknO-33">
          <mxGeometry x="0.1641" y="-3" relative="1" as="geometry">
            <mxPoint x="23" y="-18" as="offset" />
          </mxGeometry>
        </mxCell>
        <mxCell id="ONKfbVOToJ8YvUQxVknO-48" style="edgeStyle=orthogonalEdgeStyle;rounded=0;jumpStyle=arc;orthogonalLoop=1;jettySize=auto;html=1;exitX=0.857;exitY=0.393;exitDx=0;exitDy=0;exitPerimeter=0;entryX=1;entryY=0.5;entryDx=0;entryDy=0;entryPerimeter=0;" edge="1" parent="WIyWlLk6GJQsqaUBKTNV-1" source="eqVt8OM183zsTdJXWkha-25" target="ONKfbVOToJ8YvUQxVknO-26">
          <mxGeometry relative="1" as="geometry">
            <Array as="points">
              <mxPoint x="670" y="110" />
            </Array>
          </mxGeometry>
        </mxCell>
        <mxCell id="ONKfbVOToJ8YvUQxVknO-49" value="Exit Game" style="edgeLabel;html=1;align=center;verticalAlign=middle;resizable=0;points=[];" vertex="1" connectable="0" parent="ONKfbVOToJ8YvUQxVknO-48">
          <mxGeometry x="-0.8054" y="1" relative="1" as="geometry">
            <mxPoint x="21" y="20.42" as="offset" />
          </mxGeometry>
        </mxCell>
        <mxCell id="ONKfbVOToJ8YvUQxVknO-50" style="edgeStyle=orthogonalEdgeStyle;rounded=0;jumpStyle=arc;orthogonalLoop=1;jettySize=auto;html=1;exitX=0.5;exitY=0;exitDx=0;exitDy=0;exitPerimeter=0;entryX=0.5;entryY=0;entryDx=0;entryDy=0;" edge="1" parent="WIyWlLk6GJQsqaUBKTNV-1" source="eqVt8OM183zsTdJXWkha-25" target="eqVt8OM183zsTdJXWkha-0">
          <mxGeometry relative="1" as="geometry">
            <Array as="points">
              <mxPoint x="645" y="130" />
              <mxPoint x="305" y="130" />
            </Array>
          </mxGeometry>
        </mxCell>
        <mxCell id="ONKfbVOToJ8YvUQxVknO-51" value="Load Game" style="edgeLabel;html=1;align=center;verticalAlign=middle;resizable=0;points=[];" vertex="1" connectable="0" parent="ONKfbVOToJ8YvUQxVknO-50">
          <mxGeometry x="-0.4462" y="-2" relative="1" as="geometry">
            <mxPoint as="offset" />
          </mxGeometry>
        </mxCell>
        <mxCell id="ONKfbVOToJ8YvUQxVknO-53" style="edgeStyle=orthogonalEdgeStyle;rounded=0;jumpStyle=arc;orthogonalLoop=1;jettySize=auto;html=1;exitX=0.286;exitY=0.833;exitDx=0;exitDy=0;exitPerimeter=0;entryX=0.75;entryY=1;entryDx=0;entryDy=0;" edge="1" parent="WIyWlLk6GJQsqaUBKTNV-1" source="eqVt8OM183zsTdJXWkha-25" target="WIyWlLk6GJQsqaUBKTNV-7">
          <mxGeometry relative="1" as="geometry">
            <Array as="points">
              <mxPoint x="630" y="240" />
              <mxPoint x="303" y="240" />
            </Array>
          </mxGeometry>
        </mxCell>
        <mxCell id="ONKfbVOToJ8YvUQxVknO-54" value="New Game" style="edgeLabel;html=1;align=center;verticalAlign=middle;resizable=0;points=[];" vertex="1" connectable="0" parent="ONKfbVOToJ8YvUQxVknO-53">
          <mxGeometry x="-0.6396" y="-1" relative="1" as="geometry">
            <mxPoint x="9.98" as="offset" />
          </mxGeometry>
        </mxCell>
        <mxCell id="eqVt8OM183zsTdJXWkha-25" value="&lt;span&gt;Player&lt;br&gt;Input&lt;br&gt;&lt;/span&gt;" style="strokeWidth=2;html=1;shape=mxgraph.flowchart.decision;whiteSpace=wrap;" parent="WIyWlLk6GJQsqaUBKTNV-1" vertex="1">
          <mxGeometry x="610" y="160" width="70" height="60" as="geometry" />
        </mxCell>
        <mxCell id="eqVt8OM183zsTdJXWkha-31" style="edgeStyle=orthogonalEdgeStyle;rounded=0;orthogonalLoop=1;jettySize=auto;html=1;entryX=1;entryY=0.5;entryDx=0;entryDy=0;entryPerimeter=0;exitX=0.32;exitY=0.184;exitDx=0;exitDy=0;exitPerimeter=0;" parent="WIyWlLk6GJQsqaUBKTNV-1" source="eqVt8OM183zsTdJXWkha-27" target="eqVt8OM183zsTdJXWkha-25" edge="1">
          <mxGeometry relative="1" as="geometry">
            <Array as="points">
              <mxPoint x="730" y="358" />
              <mxPoint x="730" y="190" />
            </Array>
          </mxGeometry>
        </mxCell>
        <mxCell id="eqVt8OM183zsTdJXWkha-32" value="Locked" style="edgeLabel;html=1;align=center;verticalAlign=middle;resizable=0;points=[];" parent="eqVt8OM183zsTdJXWkha-31" vertex="1" connectable="0">
          <mxGeometry x="0.0954" relative="1" as="geometry">
            <mxPoint y="86.6" as="offset" />
          </mxGeometry>
        </mxCell>
        <mxCell id="eqVt8OM183zsTdJXWkha-35" value="Closed" style="edgeStyle=orthogonalEdgeStyle;rounded=0;orthogonalLoop=1;jettySize=auto;html=1;exitX=0.212;exitY=0.716;exitDx=0;exitDy=0;exitPerimeter=0;entryX=1;entryY=0.5;entryDx=0;entryDy=0;" parent="WIyWlLk6GJQsqaUBKTNV-1" source="eqVt8OM183zsTdJXWkha-27" target="eqVt8OM183zsTdJXWkha-34" edge="1">
          <mxGeometry x="-0.329" y="-2" relative="1" as="geometry">
            <mxPoint as="offset" />
          </mxGeometry>
        </mxCell>
        <mxCell id="ONKfbVOToJ8YvUQxVknO-36" style="edgeStyle=orthogonalEdgeStyle;rounded=0;jumpStyle=arc;orthogonalLoop=1;jettySize=auto;html=1;exitX=0.5;exitY=1;exitDx=0;exitDy=0;exitPerimeter=0;entryX=0.5;entryY=1;entryDx=0;entryDy=0;" edge="1" parent="WIyWlLk6GJQsqaUBKTNV-1" source="eqVt8OM183zsTdJXWkha-27" target="eqVt8OM183zsTdJXWkha-51">
          <mxGeometry relative="1" as="geometry" />
        </mxCell>
        <mxCell id="ONKfbVOToJ8YvUQxVknO-37" value="Open" style="edgeLabel;html=1;align=center;verticalAlign=middle;resizable=0;points=[];" vertex="1" connectable="0" parent="ONKfbVOToJ8YvUQxVknO-36">
          <mxGeometry x="-0.8984" relative="1" as="geometry">
            <mxPoint y="-16" as="offset" />
          </mxGeometry>
        </mxCell>
        <mxCell id="eqVt8OM183zsTdJXWkha-27" value="Check door&lt;br&gt;status" style="strokeWidth=2;html=1;shape=mxgraph.flowchart.decision;whiteSpace=wrap;" parent="WIyWlLk6GJQsqaUBKTNV-1" vertex="1">
          <mxGeometry x="720" y="340" width="100" height="100" as="geometry" />
        </mxCell>
        <mxCell id="eqVt8OM183zsTdJXWkha-37" style="edgeStyle=orthogonalEdgeStyle;rounded=0;orthogonalLoop=1;jettySize=auto;html=1;exitX=0.5;exitY=0;exitDx=0;exitDy=0;entryX=1;entryY=0.5;entryDx=0;entryDy=0;" parent="WIyWlLk6GJQsqaUBKTNV-1" source="eqVt8OM183zsTdJXWkha-34" target="eqVt8OM183zsTdJXWkha-36" edge="1">
          <mxGeometry relative="1" as="geometry">
            <mxPoint x="370" y="490" as="targetPoint" />
          </mxGeometry>
        </mxCell>
        <mxCell id="eqVt8OM183zsTdJXWkha-38" value="Answer Wrong" style="edgeLabel;html=1;align=center;verticalAlign=middle;resizable=0;points=[];" parent="eqVt8OM183zsTdJXWkha-37" vertex="1" connectable="0">
          <mxGeometry x="0.1627" y="-4" relative="1" as="geometry">
            <mxPoint x="17" y="19" as="offset" />
          </mxGeometry>
        </mxCell>
        <mxCell id="ONKfbVOToJ8YvUQxVknO-39" value="Answer Correct" style="edgeStyle=orthogonalEdgeStyle;rounded=0;jumpStyle=arc;orthogonalLoop=1;jettySize=auto;html=1;exitX=0.5;exitY=1;exitDx=0;exitDy=0;entryX=1;entryY=0.75;entryDx=0;entryDy=0;" edge="1" parent="WIyWlLk6GJQsqaUBKTNV-1" source="eqVt8OM183zsTdJXWkha-34" target="eqVt8OM183zsTdJXWkha-40">
          <mxGeometry x="-0.1852" relative="1" as="geometry">
            <Array as="points">
              <mxPoint x="580" y="460" />
              <mxPoint x="414" y="460" />
            </Array>
            <mxPoint as="offset" />
          </mxGeometry>
        </mxCell>
        <mxCell id="eqVt8OM183zsTdJXWkha-34" value="Question" style="rhombus;whiteSpace=wrap;html=1;" parent="WIyWlLk6GJQsqaUBKTNV-1" vertex="1">
          <mxGeometry x="540" y="370" width="80" height="80" as="geometry" />
        </mxCell>
        <mxCell id="eqVt8OM183zsTdJXWkha-60" style="edgeStyle=orthogonalEdgeStyle;rounded=0;orthogonalLoop=1;jettySize=auto;html=1;exitX=0;exitY=0.5;exitDx=0;exitDy=0;entryX=1;entryY=0.5;entryDx=0;entryDy=0;" parent="WIyWlLk6GJQsqaUBKTNV-1" source="eqVt8OM183zsTdJXWkha-36" target="eqVt8OM183zsTdJXWkha-57" edge="1">
          <mxGeometry relative="1" as="geometry" />
        </mxCell>
        <mxCell id="eqVt8OM183zsTdJXWkha-36" value="Lock Door" style="rounded=1;whiteSpace=wrap;html=1;" parent="WIyWlLk6GJQsqaUBKTNV-1" vertex="1">
          <mxGeometry x="500" y="320" width="60" height="30" as="geometry" />
        </mxCell>
        <mxCell id="ONKfbVOToJ8YvUQxVknO-40" style="edgeStyle=orthogonalEdgeStyle;rounded=0;jumpStyle=arc;orthogonalLoop=1;jettySize=auto;html=1;exitX=0;exitY=0.5;exitDx=0;exitDy=0;" edge="1" parent="WIyWlLk6GJQsqaUBKTNV-1" source="eqVt8OM183zsTdJXWkha-40" target="eqVt8OM183zsTdJXWkha-51">
          <mxGeometry relative="1" as="geometry" />
        </mxCell>
        <mxCell id="eqVt8OM183zsTdJXWkha-40" value="Unlock Door" style="rounded=1;whiteSpace=wrap;html=1;" parent="WIyWlLk6GJQsqaUBKTNV-1" vertex="1">
          <mxGeometry x="330" y="445" width="80" height="20" as="geometry" />
        </mxCell>
        <mxCell id="ONKfbVOToJ8YvUQxVknO-44" style="edgeStyle=orthogonalEdgeStyle;rounded=0;jumpStyle=arc;orthogonalLoop=1;jettySize=auto;html=1;exitX=0;exitY=0.5;exitDx=0;exitDy=0;entryX=0;entryY=0.5;entryDx=0;entryDy=0;" edge="1" parent="WIyWlLk6GJQsqaUBKTNV-1" source="eqVt8OM183zsTdJXWkha-44" target="WIyWlLk6GJQsqaUBKTNV-6">
          <mxGeometry relative="1" as="geometry" />
        </mxCell>
        <mxCell id="eqVt8OM183zsTdJXWkha-44" value="Game win" style="rounded=1;whiteSpace=wrap;html=1;" parent="WIyWlLk6GJQsqaUBKTNV-1" vertex="1">
          <mxGeometry x="85" y="365" width="70" height="30" as="geometry" />
        </mxCell>
        <mxCell id="ONKfbVOToJ8YvUQxVknO-43" value="Yes" style="edgeStyle=orthogonalEdgeStyle;rounded=0;jumpStyle=arc;orthogonalLoop=1;jettySize=auto;html=1;exitX=0;exitY=0.5;exitDx=0;exitDy=0;entryX=0.5;entryY=1;entryDx=0;entryDy=0;" edge="1" parent="WIyWlLk6GJQsqaUBKTNV-1" source="eqVt8OM183zsTdJXWkha-51" target="eqVt8OM183zsTdJXWkha-44">
          <mxGeometry relative="1" as="geometry" />
        </mxCell>
        <mxCell id="ONKfbVOToJ8YvUQxVknO-46" style="edgeStyle=orthogonalEdgeStyle;rounded=0;jumpStyle=arc;orthogonalLoop=1;jettySize=auto;html=1;exitX=0.5;exitY=0;exitDx=0;exitDy=0;entryX=0.5;entryY=1;entryDx=0;entryDy=0;" edge="1" parent="WIyWlLk6GJQsqaUBKTNV-1" source="eqVt8OM183zsTdJXWkha-51" target="ONKfbVOToJ8YvUQxVknO-14">
          <mxGeometry relative="1" as="geometry">
            <Array as="points">
              <mxPoint x="255" y="380" />
              <mxPoint x="485" y="380" />
            </Array>
          </mxGeometry>
        </mxCell>
        <mxCell id="ONKfbVOToJ8YvUQxVknO-47" value="No" style="edgeLabel;html=1;align=center;verticalAlign=middle;resizable=0;points=[];" vertex="1" connectable="0" parent="ONKfbVOToJ8YvUQxVknO-46">
          <mxGeometry x="-0.7176" y="-2" relative="1" as="geometry">
            <mxPoint x="-25" y="8" as="offset" />
          </mxGeometry>
        </mxCell>
        <mxCell id="eqVt8OM183zsTdJXWkha-51" value="Is it the goal room?" style="rhombus;whiteSpace=wrap;html=1;" parent="WIyWlLk6GJQsqaUBKTNV-1" vertex="1">
          <mxGeometry x="215" y="415" width="80" height="80" as="geometry" />
        </mxCell>
        <mxCell id="eqVt8OM183zsTdJXWkha-62" value="No" style="edgeStyle=orthogonalEdgeStyle;rounded=0;orthogonalLoop=1;jettySize=auto;html=1;exitX=0;exitY=0.5;exitDx=0;exitDy=0;entryX=1;entryY=0.5;entryDx=0;entryDy=0;" parent="WIyWlLk6GJQsqaUBKTNV-1" source="eqVt8OM183zsTdJXWkha-57" target="eqVt8OM183zsTdJXWkha-61" edge="1">
          <mxGeometry x="-0.6471" y="5" relative="1" as="geometry">
            <mxPoint as="offset" />
          </mxGeometry>
        </mxCell>
        <mxCell id="ONKfbVOToJ8YvUQxVknO-23" style="edgeStyle=orthogonalEdgeStyle;rounded=0;orthogonalLoop=1;jettySize=auto;html=1;exitX=0.5;exitY=0;exitDx=0;exitDy=0;entryX=0.25;entryY=1;entryDx=0;entryDy=0;jumpStyle=arc;" edge="1" parent="WIyWlLk6GJQsqaUBKTNV-1" source="eqVt8OM183zsTdJXWkha-57" target="ONKfbVOToJ8YvUQxVknO-14">
          <mxGeometry relative="1" as="geometry">
            <Array as="points">
              <mxPoint x="370" y="250" />
              <mxPoint x="465" y="250" />
              <mxPoint x="465" y="200" />
            </Array>
          </mxGeometry>
        </mxCell>
        <mxCell id="ONKfbVOToJ8YvUQxVknO-24" value="Yes" style="edgeLabel;html=1;align=center;verticalAlign=middle;resizable=0;points=[];" vertex="1" connectable="0" parent="ONKfbVOToJ8YvUQxVknO-23">
          <mxGeometry x="-0.52" relative="1" as="geometry">
            <mxPoint y="26" as="offset" />
          </mxGeometry>
        </mxCell>
        <mxCell id="eqVt8OM183zsTdJXWkha-57" value="Is game still winnable?" style="rhombus;whiteSpace=wrap;html=1;" parent="WIyWlLk6GJQsqaUBKTNV-1" vertex="1">
          <mxGeometry x="330" y="295" width="80" height="80" as="geometry" />
        </mxCell>
        <mxCell id="eqVt8OM183zsTdJXWkha-64" style="edgeStyle=orthogonalEdgeStyle;rounded=0;orthogonalLoop=1;jettySize=auto;html=1;exitX=0;exitY=0.5;exitDx=0;exitDy=0;entryX=0;entryY=0.5;entryDx=0;entryDy=0;" parent="WIyWlLk6GJQsqaUBKTNV-1" source="eqVt8OM183zsTdJXWkha-61" target="WIyWlLk6GJQsqaUBKTNV-6" edge="1">
          <mxGeometry relative="1" as="geometry" />
        </mxCell>
        <mxCell id="eqVt8OM183zsTdJXWkha-61" value="Game Loss" style="rounded=1;whiteSpace=wrap;html=1;" parent="WIyWlLk6GJQsqaUBKTNV-1" vertex="1">
          <mxGeometry x="80" y="320" width="80" height="30" as="geometry" />
        </mxCell>
        <mxCell id="eqVt8OM183zsTdJXWkha-66" value="Collect question data from database" style="rounded=1;whiteSpace=wrap;html=1;" parent="WIyWlLk6GJQsqaUBKTNV-1" vertex="1">
          <mxGeometry x="215" y="245" width="120" height="60" as="geometry" />
        </mxCell>
        <mxCell id="eqVt8OM183zsTdJXWkha-67" value="" style="endArrow=classic;startArrow=classic;html=1;" parent="WIyWlLk6GJQsqaUBKTNV-1" source="eqVt8OM183zsTdJXWkha-66" target="WIyWlLk6GJQsqaUBKTNV-7" edge="1">
          <mxGeometry width="50" height="50" relative="1" as="geometry">
            <mxPoint x="320" y="305" as="sourcePoint" />
            <mxPoint x="370" y="255" as="targetPoint" />
          </mxGeometry>
        </mxCell>
        <mxCell id="ONKfbVOToJ8YvUQxVknO-34" style="edgeStyle=orthogonalEdgeStyle;rounded=0;jumpStyle=arc;orthogonalLoop=1;jettySize=auto;html=1;exitX=1;exitY=0.5;exitDx=0;exitDy=0;entryX=0.5;entryY=1;entryDx=0;entryDy=0;entryPerimeter=0;" edge="1" parent="WIyWlLk6GJQsqaUBKTNV-1" source="ONKfbVOToJ8YvUQxVknO-5" target="eqVt8OM183zsTdJXWkha-25">
          <mxGeometry relative="1" as="geometry">
            <Array as="points">
              <mxPoint x="645" y="275" />
            </Array>
          </mxGeometry>
        </mxCell>
        <mxCell id="ONKfbVOToJ8YvUQxVknO-5" value="Save game&lt;br&gt;to .txt file" style="rounded=1;whiteSpace=wrap;html=1;" vertex="1" parent="WIyWlLk6GJQsqaUBKTNV-1">
          <mxGeometry x="520" y="260" width="70" height="30" as="geometry" />
        </mxCell>
        <mxCell id="ONKfbVOToJ8YvUQxVknO-38" style="edgeStyle=orthogonalEdgeStyle;rounded=0;jumpStyle=arc;orthogonalLoop=1;jettySize=auto;html=1;exitX=0.75;exitY=0;exitDx=0;exitDy=0;entryX=0.274;entryY=0.193;entryDx=0;entryDy=0;entryPerimeter=0;" edge="1" parent="WIyWlLk6GJQsqaUBKTNV-1" source="ONKfbVOToJ8YvUQxVknO-14" target="eqVt8OM183zsTdJXWkha-25">
          <mxGeometry relative="1" as="geometry">
            <Array as="points">
              <mxPoint x="500" y="172" />
            </Array>
          </mxGeometry>
        </mxCell>
        <mxCell id="ONKfbVOToJ8YvUQxVknO-14" value="Top of Round" style="rounded=1;whiteSpace=wrap;html=1;" vertex="1" parent="WIyWlLk6GJQsqaUBKTNV-1">
          <mxGeometry x="440" y="180" width="80" height="20" as="geometry" />
        </mxCell>
        <mxCell id="ONKfbVOToJ8YvUQxVknO-26" value="Terminate&lt;br&gt;process" style="strokeWidth=2;html=1;shape=mxgraph.flowchart.terminator;whiteSpace=wrap;" vertex="1" parent="WIyWlLk6GJQsqaUBKTNV-1">
          <mxGeometry x="220" y="90" width="70" height="40" as="geometry" />
        </mxCell>
      </root>
    </mxGraphModel>
  </diagram>
</mxfile>
